# xmcd
#
# Track frame offsets: 
#        150
#        11862
#        26414
#        46920
#        71104
#        93644
#        107208
#        124191
#        146991
#        160115
#
# Disc length: 2308 seconds
#
# Revision: 0
# Processed by: cddbd v1.5.2PL0 Copyright (c) Steve Scherf et al.
# Submitted via: ExactAudioCopyFreeDBPlugin 1.0
#
DISCID=8e09020a
DTITLE=Amy Grant - Have Yourself a Merry Little Christmas
DYEAR=2011
DGENRE=Christmas
TTITLE0=Have Yourself a Merry Little Christmas
TTITLE1=Christmas Can't Be Far Away
TTITLE2=Tennessee Christmas
TTITLE3=Breath of Heaven (Mary's Song)
TTITLE4=Grown-Up Christmas List
TTITLE5=O Come All Ye Faithful
TTITLE6=Silent Night
TTITLE7='Til the Season Comes 'Round Again
TTITLE8=Hark! The Herald Angles Sing
TTITLE9=Emmanuel
EXTD=
EXTT0=
EXTT1=
EXTT2=
EXTT3=
EXTT4=
EXTT5=
EXTT6=
EXTT7=
EXTT8=
EXTT9=
PLAYORDER=
